# Blender 3.5.1
# www.blender.org
mtllib nextbot.mtl
o rect_84x84x1_5
v -0.250002 0.000000 42.000000
v 0.250002 84.000000 42.000000
v -0.249998 84.000000 42.000000
v 0.249998 0.000000 42.000000
v 0.250002 84.000000 -42.000000
v -0.249998 84.000000 -42.000000
v 0.249998 0.000000 -42.000000
v -0.250002 0.000000 -42.000000
vn -0.0000 -0.0000 1.0000
vn -0.0000 1.0000 -0.0000
vn -0.0000 -0.0000 -1.0000
vn -0.0000 -1.0000 -0.0000
vn -1.0000 -0.0000 -0.0000
vn 1.0000 -0.0000 -0.0000
vt 0.000000 -1.000000
vt 1.750000 -0.989583
vt 0.000000 -0.989583
vt 0.000000 0.750000
vt 1.750000 -1.000000
vt 0.000000 -1.000000
vt 0.000000 0.750000
vt 0.000000 -0.989583
vt 0.000000 -1.000000
vt 1.750000 -0.989583
vt 1.750000 0.750000
vt 1.750000 -1.000000
vt 1.750000 0.750000
vt 0.000000 -0.989583
vt 1.750000 -0.989583
vt 1.750000 -1.000000
vt 0.000000 -1.000000
vt 1.750000 -1.000000
s 1
usemtl Material.001
f 1/1/1 2/2/1 3/5/1
f 1/1/1 4/8/1 2/2/1
f 3/6/2 5/10/2 6/12/2
f 3/6/2 2/3/2 5/10/2
f 6/12/3 7/14/3 8/17/3
f 6/12/3 5/10/3 7/14/3
f 8/18/4 4/8/4 1/1/4
f 8/18/4 7/15/4 4/8/4
f 3/7/5 8/18/5 1/1/5
f 3/7/5 6/13/5 8/18/5
f 5/11/6 4/9/6 7/16/6
f 5/11/6 2/4/6 4/9/6
