# Blender 3.6.8
# www.blender.org
o TextHolder
v 33.606285 0.666510 -1.708626
v 33.333977 0.666510 -1.930044
v 33.541531 0.666510 -1.710451
v 33.479446 0.666510 -1.728976
v 33.424278 0.666510 -1.762938
v 33.379776 0.666510 -1.810021
v 33.348976 0.666510 -1.867018
v 36.852215 0.666510 -2.292677
v 36.630795 0.666510 -2.020369
v 36.850384 0.666510 -2.227917
v 36.831860 0.666510 -2.165836
v 36.797901 0.666510 -2.110666
v 36.750816 0.666510 -2.066164
v 36.693817 0.666510 -2.035366
v 33.543766 0.666510 -2.315178
v 33.322350 0.666510 -2.042870
v 33.480747 0.666510 -2.300182
v 33.423744 0.666510 -2.269382
v 33.376663 0.666510 -2.224882
v 33.342701 0.666510 -2.169711
v 33.324177 0.666510 -2.107630
v 36.568275 0.666510 -2.626922
v 36.840588 0.666510 -2.405503
v 36.633034 0.666510 -2.625096
v 36.695114 0.666510 -2.606571
v 36.750286 0.666510 -2.572609
v 36.794785 0.666510 -2.525526
v 36.825584 0.666510 -2.468529
v 36.825584 0.705351 -2.468529
v 36.794785 0.705351 -2.525526
v 36.750286 0.705351 -2.572609
v 36.695114 0.705351 -2.606571
v 36.633034 0.705351 -2.625096
v 36.840588 0.705351 -2.405503
v 36.568275 0.705351 -2.626922
v 33.324177 0.705351 -2.107630
v 33.342701 0.705351 -2.169711
v 33.376663 0.705351 -2.224882
v 33.423744 0.705351 -2.269382
v 33.480747 0.705351 -2.300182
v 33.322350 0.705351 -2.042870
v 33.543766 0.705351 -2.315178
v 36.693817 0.705351 -2.035366
v 36.750816 0.705351 -2.066164
v 36.797901 0.705351 -2.110666
v 36.831860 0.705351 -2.165836
v 36.850384 0.705351 -2.227917
v 36.630795 0.705351 -2.020369
v 36.852215 0.705351 -2.292677
v 33.348976 0.705351 -1.867018
v 33.379776 0.705351 -1.810021
v 33.424278 0.705351 -1.762938
v 33.479446 0.705351 -1.728976
v 33.541531 0.705351 -1.710451
v 33.333977 0.705351 -1.930044
v 33.606285 0.705351 -1.708626
v 36.825584 0.627669 -2.468529
v 36.794785 0.627669 -2.525526
v 36.750286 0.627669 -2.572609
v 36.695114 0.627669 -2.606571
v 36.633034 0.627669 -2.625096
v 36.840588 0.627669 -2.405503
v 36.568275 0.627669 -2.626922
v 33.324177 0.627669 -2.107630
v 33.342701 0.627669 -2.169711
v 33.376663 0.627669 -2.224882
v 33.423744 0.627669 -2.269382
v 33.480747 0.627669 -2.300182
v 33.322350 0.627669 -2.042870
v 33.543766 0.627669 -2.315178
v 36.693817 0.627669 -2.035366
v 36.750816 0.627669 -2.066164
v 36.797901 0.627669 -2.110666
v 36.831860 0.627669 -2.165836
v 36.850384 0.627669 -2.227917
v 36.630795 0.627669 -2.020369
v 36.852215 0.627669 -2.292677
v 33.348976 0.627669 -1.867018
v 33.379776 0.627669 -1.810021
v 33.424278 0.627669 -1.762938
v 33.479446 0.627669 -1.728976
v 33.541531 0.627669 -1.710451
v 33.333977 0.627669 -1.930044
v 33.606285 0.627669 -1.708626
vn 0.6869 -0.0000 0.7268
vn -0.4754 -0.0000 -0.8798
vn 0.4754 -0.0000 0.8798
vn -0.2315 -0.0000 -0.9728
vn 0.2315 -0.0000 0.9728
vn -0.1025 -0.0000 -0.9947
vn 0.1025 -0.0000 0.9947
vn 0.0282 -0.0000 -0.9996
vn -0.0282 -0.0000 0.9996
vn 0.2859 -0.0000 -0.9582
vn -0.2859 -0.0000 0.9582
vn 0.5242 -0.0000 -0.8516
vn -0.5242 -0.0000 0.8516
vn 0.7268 -0.0000 -0.6869
vn -0.7268 -0.0000 0.6869
vn 0.8798 -0.0000 -0.4754
vn -0.8798 -0.0000 0.4754
vn 0.9728 -0.0000 -0.2315
vn -0.9728 -0.0000 0.2315
vn 0.9947 -0.0000 -0.1025
vn -0.9996 -0.0000 -0.0282
vn -0.9947 -0.0000 0.1025
vn 0.9996 -0.0000 0.0282
vn -0.9582 -0.0000 -0.2860
vn 0.9582 -0.0000 0.2860
vn -0.8516 -0.0000 -0.5242
vn 0.8516 -0.0000 0.5242
vn -0.6869 -0.0000 -0.7268
vn -0.0000 1.0000 -0.0000
vn -0.0000 -1.0000 -0.0000
vt 0.000000 0.000000
s 0
f 13/1/1 12/1/1 45/1/1 44/1/1
f 17/1/2 18/1/2 39/1/2 40/1/2
f 14/1/3 13/1/3 44/1/3 43/1/3
f 15/1/4 17/1/4 40/1/4 42/1/4
f 9/1/5 14/1/5 43/1/5 48/1/5
f 22/1/6 15/1/6 42/1/6 35/1/6
f 1/1/7 9/1/7 48/1/7 56/1/7
f 24/1/8 22/1/8 35/1/8 33/1/8
f 3/1/9 1/1/9 56/1/9 54/1/9
f 25/1/10 24/1/10 33/1/10 32/1/10
f 4/1/11 3/1/11 54/1/11 53/1/11
f 26/1/12 25/1/12 32/1/12 31/1/12
f 5/1/13 4/1/13 53/1/13 52/1/13
f 27/1/14 26/1/14 31/1/14 30/1/14
f 6/1/15 5/1/15 52/1/15 51/1/15
f 28/1/16 27/1/16 30/1/16 29/1/16
f 7/1/17 6/1/17 51/1/17 50/1/17
f 23/1/18 28/1/18 29/1/18 34/1/18
f 2/1/19 7/1/19 50/1/19 55/1/19
f 8/1/20 23/1/20 34/1/20 49/1/20
f 21/1/21 16/1/21 41/1/21 36/1/21
f 16/1/22 2/1/22 55/1/22 41/1/22
f 10/1/23 8/1/23 49/1/23 47/1/23
f 20/1/24 21/1/24 36/1/24 37/1/24
f 11/1/25 10/1/25 47/1/25 46/1/25
f 19/1/26 20/1/26 37/1/26 38/1/26
f 12/1/27 11/1/27 46/1/27 45/1/27
f 18/1/28 19/1/28 38/1/28 39/1/28
f 36/1/29 41/1/29 55/1/29 50/1/29 51/1/29 52/1/29 53/1/29 54/1/29 56/1/29 48/1/29 43/1/29 44/1/29 45/1/29 46/1/29 47/1/29 49/1/29 34/1/29 29/1/29 30/1/29 31/1/29 32/1/29 33/1/29 35/1/29 42/1/29 40/1/29 39/1/29 38/1/29 37/1/29
f 13/1/1 72/1/1 73/1/1 12/1/1
f 17/1/2 68/1/2 67/1/2 18/1/2
f 14/1/3 71/1/3 72/1/3 13/1/3
f 15/1/4 70/1/4 68/1/4 17/1/4
f 9/1/5 76/1/5 71/1/5 14/1/5
f 22/1/6 63/1/6 70/1/6 15/1/6
f 1/1/7 84/1/7 76/1/7 9/1/7
f 24/1/8 61/1/8 63/1/8 22/1/8
f 3/1/9 82/1/9 84/1/9 1/1/9
f 25/1/10 60/1/10 61/1/10 24/1/10
f 4/1/11 81/1/11 82/1/11 3/1/11
f 26/1/12 59/1/12 60/1/12 25/1/12
f 5/1/13 80/1/13 81/1/13 4/1/13
f 27/1/14 58/1/14 59/1/14 26/1/14
f 6/1/15 79/1/15 80/1/15 5/1/15
f 28/1/16 57/1/16 58/1/16 27/1/16
f 7/1/17 78/1/17 79/1/17 6/1/17
f 23/1/18 62/1/18 57/1/18 28/1/18
f 2/1/19 83/1/19 78/1/19 7/1/19
f 8/1/20 77/1/20 62/1/20 23/1/20
f 21/1/21 64/1/21 69/1/21 16/1/21
f 16/1/22 69/1/22 83/1/22 2/1/22
f 10/1/23 75/1/23 77/1/23 8/1/23
f 20/1/24 65/1/24 64/1/24 21/1/24
f 11/1/25 74/1/25 75/1/25 10/1/25
f 19/1/26 66/1/26 65/1/26 20/1/26
f 12/1/27 73/1/27 74/1/27 11/1/27
f 18/1/28 67/1/28 66/1/28 19/1/28
f 64/1/30 65/1/30 66/1/30 67/1/30 68/1/30 70/1/30 63/1/30 61/1/30 60/1/30 59/1/30 58/1/30 57/1/30 62/1/30 77/1/30 75/1/30 74/1/30 73/1/30 72/1/30 71/1/30 76/1/30 84/1/30 82/1/30 81/1/30 80/1/30 79/1/30 78/1/30 83/1/30 69/1/30
