# Blender 3.6.8
# www.blender.org
o Blade
v 0.412885 0.000000 -0.051231
v 0.457955 0.000000 -0.051071
v 0.083351 0.000000 0.001449
v -0.852826 0.000000 -0.087939
v -0.869688 0.000000 -0.097903
v -0.739766 0.000000 -0.103844
v -0.641353 0.000000 -0.089137
v -0.578670 0.000000 -0.082360
v -0.391454 0.000000 -0.061168
v -0.272434 0.000000 -0.055070
v -0.147500 0.000000 -0.048971
v 0.018623 0.000000 -0.045138
v 0.185879 0.000000 -0.045138
v 0.310337 0.000000 -0.047901
v 0.457635 0.000000 -0.015919
v 0.457955 0.000000 -0.034746
v 0.552506 0.000000 -0.015919
v 0.552827 0.000000 -0.034746
v 0.652785 0.000000 -0.023265
v 0.746676 0.000000 -0.032207
v 0.800009 0.000000 -0.040191
v 0.791241 0.000000 -0.057239
v 0.653423 0.000000 -0.041149
v 0.301332 0.000000 0.001909
v 0.457635 0.000000 0.001022
v 0.412885 0.005755 -0.051231
v 0.457955 0.006533 -0.051071
v -0.010806 0.000000 0.001290
v -0.117525 0.000000 -0.001638
v -0.191510 0.000000 -0.004831
v -0.248994 0.000000 -0.007493
v -0.338148 0.000000 -0.014412
v -0.883101 0.000000 -0.116298
v -0.889157 0.000000 -0.128948
v -0.739766 0.004282 -0.103844
v -0.641353 0.005755 -0.089137
v -0.578670 0.005755 -0.082360
v -0.391454 0.005755 -0.061168
v -0.272434 0.005755 -0.055070
v -0.147500 0.005755 -0.048971
v 0.018623 0.005755 -0.045138
v 0.185879 0.005755 -0.045138
v 0.310337 0.005755 -0.047901
v 0.457635 0.009422 -0.015919
v 0.457955 0.009422 -0.034746
v 0.552506 0.009422 -0.015919
v 0.552827 0.009422 -0.034746
v 0.652785 0.009422 -0.023265
v 0.746676 0.009422 -0.032207
v 0.800009 0.009422 -0.040191
v 0.791241 0.009422 -0.057239
v 0.653423 0.009422 -0.041149
v 0.478437 0.000000 -0.015919
v 0.478437 0.009422 -0.015919
v -0.412399 0.000000 -0.020533
v -0.480262 0.000000 -0.026388
v -0.568086 0.000000 -0.035437
v -0.689187 0.000000 -0.051149
v -0.757401 0.000000 -0.065329
v 0.457573 0.006050 -0.021412
v 0.412813 0.005256 -0.022257
v 0.310797 0.005653 -0.022856
v 0.186210 0.005256 -0.022125
v 0.018970 0.005455 -0.022490
v -0.148008 0.005455 -0.026141
v -0.272460 0.005653 -0.031252
v -0.395842 0.005256 -0.040744
v -0.572365 0.005256 -0.057537
v -0.635754 0.005653 -0.063743
v -0.744387 0.004066 -0.083102
v -0.847519 0.004066 -0.100128
v 0.653423 0.004562 -0.041149
v 0.552827 0.004562 -0.034746
v -0.147500 0.002786 -0.048971
v -0.272434 0.002786 -0.055070
v 0.018623 0.002786 -0.045138
v 0.185879 0.002786 -0.045138
v 0.310337 0.002786 -0.047901
v 0.412885 0.002786 -0.051231
v 0.457955 0.003163 -0.051071
v 0.457955 0.004562 -0.034746
v 0.457635 0.004562 -0.015919
v 0.552506 0.004562 -0.015919
v 0.652785 0.004562 -0.023265
v -0.739766 0.002073 -0.103844
v 0.746676 0.004562 -0.032207
v -0.641353 0.002786 -0.089137
v 0.800009 0.004562 -0.040191
v -0.578670 0.002786 -0.082360
v 0.791241 0.004562 -0.057239
v -0.391454 0.002786 -0.061168
v 0.478437 0.004562 -0.015919
v 0.653423 0.006220 -0.041149
v 0.552506 0.006220 -0.015919
v 0.652785 0.006220 -0.023265
v 0.746676 0.006220 -0.032207
v 0.800009 0.006220 -0.040191
v 0.791241 0.006220 -0.057239
v 0.478437 0.006220 -0.015919
v 0.552827 0.006220 -0.034746
v 0.457955 0.006220 -0.034746
v 0.412885 -0.005755 -0.051231
v 0.457955 -0.006533 -0.051071
v -0.739766 -0.004282 -0.103844
v -0.641353 -0.005755 -0.089137
v -0.578670 -0.005755 -0.082360
v -0.391454 -0.005755 -0.061168
v -0.272434 -0.005755 -0.055070
v -0.147500 -0.005755 -0.048971
v 0.018623 -0.005755 -0.045138
v 0.185879 -0.005755 -0.045138
v 0.310337 -0.005755 -0.047901
v 0.457635 -0.009422 -0.015919
v 0.457955 -0.009422 -0.034746
v 0.552506 -0.009422 -0.015919
v 0.552827 -0.009422 -0.034746
v 0.652785 -0.009422 -0.023265
v 0.746676 -0.009422 -0.032207
v 0.800009 -0.009422 -0.040191
v 0.791241 -0.009422 -0.057239
v 0.653423 -0.009422 -0.041149
v 0.478437 -0.009422 -0.015919
v 0.457573 -0.006050 -0.021412
v 0.412813 -0.005256 -0.022257
v 0.310797 -0.005653 -0.022856
v 0.186210 -0.005256 -0.022125
v 0.018970 -0.005455 -0.022490
v -0.148008 -0.005455 -0.026141
v -0.272460 -0.005653 -0.031252
v -0.395842 -0.005256 -0.040744
v -0.572365 -0.005256 -0.057537
v -0.635754 -0.005653 -0.063743
v -0.744387 -0.004066 -0.083102
v -0.847519 -0.004066 -0.100128
v 0.653423 -0.004562 -0.041149
v 0.552827 -0.004562 -0.034746
v -0.147500 -0.002786 -0.048971
v -0.272434 -0.002786 -0.055070
v 0.018623 -0.002786 -0.045138
v 0.185879 -0.002786 -0.045138
v 0.310337 -0.002786 -0.047901
v 0.412885 -0.002786 -0.051231
v 0.457955 -0.003163 -0.051071
v 0.457955 -0.004562 -0.034746
v 0.457635 -0.004562 -0.015919
v 0.552506 -0.004562 -0.015919
v 0.652785 -0.004562 -0.023265
v -0.739766 -0.002073 -0.103844
v 0.746676 -0.004562 -0.032207
v -0.641353 -0.002786 -0.089137
v 0.800009 -0.004562 -0.040191
v -0.578670 -0.002786 -0.082360
v 0.791241 -0.004562 -0.057239
v -0.391454 -0.002786 -0.061168
v 0.478437 -0.004562 -0.015919
v 0.653423 -0.006220 -0.041149
v 0.552506 -0.006220 -0.015919
v 0.652785 -0.006220 -0.023265
v 0.746676 -0.006220 -0.032207
v 0.800009 -0.006220 -0.040191
v 0.791241 -0.006220 -0.057239
v 0.478437 -0.006220 -0.015919
v 0.552827 -0.006220 -0.034746
v 0.457955 -0.006220 -0.034746
vn -0.0635 -0.0000 -0.9980
vn 0.0488 -0.0000 -0.9988
vn 0.0231 -0.0000 -0.9997
vn -0.0000 -0.0000 -1.0000
vn -0.0222 -0.0000 -0.9998
vn -0.0325 -0.0000 -0.9995
vn -0.1160 -0.0000 -0.9933
vn -0.0000 -0.0000 1.0000
vn 0.0036 -0.0000 -1.0000
vn 0.0731 -0.0000 0.9973
vn 0.1657 -0.0000 -0.9862
vn 0.0948 -0.0000 0.9955
vn 0.1478 -0.0000 -0.9890
vn 0.1481 -0.0000 0.9890
vn 0.1075 -0.0000 -0.9942
vn 0.8893 -0.0000 -0.4573
vn 0.1125 -0.0000 -0.9937
vn 0.0512 -0.0000 -0.9987
vn 1.0000 -0.0000 -0.0000
vn -0.0218 0.9654 0.2600
vn -0.0220 0.9649 0.2616
vn -0.0112 0.9702 0.2419
vn 0.0025 0.9747 0.2235
vn 0.0007 0.9754 0.2204
vn -0.0005 0.9765 0.2157
vn -0.0004 0.9748 0.2231
vn -0.0059 0.9763 0.2165
vn -0.0049 0.9748 0.2231
vn -0.0099 0.9734 0.2290
vn -0.0404 0.9801 0.1946
vn -0.0684 0.9550 0.2888
vn -0.0217 0.9702 0.2412
vn -0.0194 0.9682 0.2495
vn -0.0195 0.9714 0.2367
vn -0.0080 0.9725 0.2326
vn -0.0217 0.9733 0.2285
vn -0.0361 0.9599 0.2779
vn -0.0169 0.9720 0.2344
vn 0.0012 0.9760 0.2180
vn -0.0525 0.9752 0.2149
vn -0.0243 0.9715 0.2358
vn -0.0330 0.9793 0.1999
vn -0.0018 0.9751 0.2219
vn -0.1498 0.9556 0.2536
vn -0.1672 0.9784 0.1219
vn -0.1442 0.9871 0.0690
vn -0.0204 0.9715 0.2360
vn -0.0000 1.0000 -0.0000
vn -0.9999 -0.0000 0.0112
vn -0.9988 0.0460 -0.0170
vn 0.9999 -0.0000 0.0170
vn -0.9996 -0.0000 -0.0286
vn 0.9994 0.0279 0.0195
vn -0.0065 0.9914 -0.1305
vn -0.0017 0.9999 0.0101
vn -0.0173 0.9997 0.0192
vn 0.0006 0.9999 0.0172
vn 0.0044 0.9998 0.0190
vn -0.0159 0.9998 0.0075
vn -0.0050 0.9997 0.0233
vn -0.0000 0.9999 0.0132
vn -0.0166 0.9997 0.0172
vn 0.0005 0.9998 0.0216
vn -0.0004 1.0000 0.0041
vn -0.0023 0.9997 0.0239
vn -0.0023 0.9998 0.0207
vn -0.0003 0.9999 0.0131
vn 0.0011 0.9999 0.0132
vn 0.0039 1.0000 0.0040
vn -0.0180 0.9998 0.0122
vn -0.0032 1.0000 0.0041
vn -0.0002 1.0000 0.0043
vn 0.0011 0.9998 0.0216
vn -0.0003 0.9999 0.0132
vn -0.0160 0.9998 0.0069
vn -0.0218 -0.9654 0.2600
vn -0.0220 -0.9649 0.2616
vn -0.0112 -0.9702 0.2419
vn 0.0025 -0.9747 0.2235
vn 0.0007 -0.9754 0.2204
vn -0.0005 -0.9765 0.2157
vn -0.0004 -0.9748 0.2231
vn -0.0059 -0.9763 0.2165
vn -0.0049 -0.9748 0.2231
vn -0.0099 -0.9734 0.2290
vn -0.0404 -0.9801 0.1946
vn -0.0684 -0.9550 0.2888
vn -0.0217 -0.9702 0.2412
vn -0.0194 -0.9682 0.2495
vn -0.0195 -0.9714 0.2367
vn -0.0080 -0.9725 0.2326
vn -0.0217 -0.9733 0.2285
vn -0.0361 -0.9599 0.2779
vn -0.0169 -0.9720 0.2344
vn 0.0012 -0.9760 0.2180
vn -0.0525 -0.9752 0.2149
vn -0.0243 -0.9715 0.2358
vn -0.0330 -0.9793 0.1999
vn -0.0018 -0.9751 0.2219
vn -0.1498 -0.9556 0.2536
vn -0.1672 -0.9784 0.1219
vn -0.1442 -0.9871 0.0690
vn -0.0204 -0.9715 0.2360
vn -0.0000 -1.0000 -0.0000
vn -0.9988 -0.0460 -0.0170
vn 0.9994 -0.0279 0.0195
vn -0.0065 -0.9914 -0.1305
vn -0.0017 -0.9999 0.0101
vn -0.0173 -0.9997 0.0192
vn 0.0006 -0.9999 0.0172
vn 0.0044 -0.9998 0.0190
vn -0.0159 -0.9998 0.0075
vn -0.0050 -0.9997 0.0233
vn -0.0000 -0.9999 0.0132
vn -0.0166 -0.9997 0.0172
vn 0.0005 -0.9998 0.0216
vn -0.0004 -1.0000 0.0041
vn -0.0023 -0.9997 0.0239
vn -0.0023 -0.9998 0.0207
vn -0.0003 -0.9999 0.0131
vn 0.0011 -0.9999 0.0132
vn 0.0039 -1.0000 0.0040
vn -0.0180 -0.9998 0.0122
vn -0.0032 -1.0000 0.0041
vn -0.0002 -1.0000 0.0043
vn 0.0011 -0.9998 0.0216
vn -0.0003 -0.9999 0.0132
vn -0.0160 -0.9998 0.0069
vt 0.000000 0.000000
s 0
f 100/1/1 47/1/1 52/1/1 93/1/1
f 75/1/2 39/1/2 40/1/2 74/1/2
f 74/1/3 40/1/3 41/1/3 76/1/3
f 76/1/4 41/1/4 42/1/4 77/1/4
f 77/1/5 42/1/5 43/1/5 78/1/5
f 79/1/6 78/1/6 43/1/6 26/1/6
f 90/1/7 72/1/7 93/1/7 98/1/7
f 99/1/8 94/1/8 46/1/8 54/1/8
f 80/1/9 79/1/9 26/1/9 27/1/9
f 100/1/4 101/1/4 45/1/4 47/1/4
f 94/1/10 95/1/10 48/1/10 46/1/10
f 34/1/11 35/1/11 85/1/11 6/1/11
f 95/1/12 96/1/12 49/1/12 48/1/12
f 85/1/13 35/1/13 36/1/13 87/1/13
f 96/1/14 97/1/14 50/1/14 49/1/14
f 87/1/15 36/1/15 37/1/15 89/1/15
f 97/1/16 98/1/16 51/1/16 50/1/16
f 89/1/17 37/1/17 38/1/17 91/1/17
f 98/1/7 93/1/7 52/1/7 51/1/7
f 91/1/18 38/1/18 39/1/18 75/1/18
f 82/1/8 92/1/8 99/1/8 54/1/8 44/1/8
f 15/1/8 53/1/8 92/1/8 82/1/8
f 9/1/18 91/1/18 75/1/18 10/1/18
f 22/1/7 23/1/7 72/1/7 90/1/7
f 8/1/17 89/1/17 91/1/17 9/1/17
f 21/1/16 22/1/16 90/1/16 88/1/16
f 7/1/15 87/1/15 89/1/15 8/1/15
f 20/1/14 21/1/14 88/1/14 86/1/14
f 6/1/13 85/1/13 87/1/13 7/1/13
f 19/1/12 20/1/12 86/1/12 84/1/12
f 17/1/10 19/1/10 84/1/10 83/1/10
f 18/1/4 16/1/4 81/1/4 73/1/4
f 2/1/9 1/1/9 79/1/9 80/1/9
f 53/1/8 17/1/8 83/1/8 92/1/8
f 16/1/19 2/1/19 80/1/19 81/1/19
f 1/1/6 14/1/6 78/1/6 79/1/6
f 13/1/5 77/1/5 78/1/5 14/1/5
f 12/1/4 76/1/4 77/1/4 13/1/4
f 11/1/3 74/1/3 76/1/3 12/1/3
f 10/1/2 75/1/2 74/1/2 11/1/2
f 18/1/1 73/1/1 72/1/1 23/1/1
f 44/1/19 25/1/19 82/1/19
f 82/1/19 25/1/19 15/1/19
f 82/1/20 61/1/20 25/1/20
f 60/1/21 61/1/21 82/1/21
f 66/1/22 31/1/22 30/1/22
f 61/1/23 62/1/23 24/1/23
f 3/1/24 63/1/24 64/1/24
f 63/1/25 3/1/25 24/1/25
f 28/1/26 3/1/26 64/1/26
f 29/1/27 28/1/27 64/1/27
f 29/1/28 64/1/28 65/1/28
f 30/1/29 29/1/29 65/1/29
f 70/1/30 59/1/30 58/1/30
f 71/1/31 4/1/31 59/1/31
f 32/1/32 66/1/32 67/1/32
f 66/1/33 32/1/33 31/1/33
f 55/1/34 32/1/34 67/1/34
f 65/1/35 66/1/35 30/1/35
f 67/1/36 68/1/36 56/1/36
f 69/1/37 58/1/37 57/1/37
f 68/1/38 69/1/38 57/1/38
f 61/1/39 24/1/39 25/1/39
f 69/1/40 70/1/40 58/1/40
f 68/1/41 57/1/41 56/1/41
f 70/1/42 71/1/42 59/1/42
f 62/1/43 63/1/43 24/1/43
f 5/1/44 4/1/44 71/1/44
f 33/1/45 5/1/45 71/1/45
f 33/1/46 71/1/46 34/1/46
f 67/1/47 56/1/47 55/1/47
f 52/1/48 49/1/48 51/1/48
f 49/1/48 50/1/48 51/1/48
f 52/1/48 47/1/48 48/1/48
f 44/1/48 54/1/48 45/1/48
f 47/1/48 54/1/48 46/1/48
f 54/1/48 47/1/48 45/1/48
f 49/1/48 52/1/48 48/1/48
f 48/1/48 47/1/48 46/1/48
f 88/1/16 90/1/16 98/1/16 97/1/16
f 86/1/14 88/1/14 97/1/14 96/1/14
f 84/1/12 86/1/12 96/1/12 95/1/12
f 83/1/10 84/1/10 95/1/10 94/1/10
f 73/1/4 81/1/4 101/1/4 100/1/4
f 92/1/8 83/1/8 94/1/8 99/1/8
f 73/1/1 100/1/1 93/1/1 72/1/1
f 44/1/49 60/1/49 82/1/49
f 44/1/50 45/1/50 60/1/50
f 101/1/51 15/1/51 16/1/51 81/1/51
f 45/1/52 101/1/52 60/1/52
f 101/1/53 60/1/53 82/1/53 15/1/53
f 81/1/19 80/1/19 27/1/19 101/1/19
f 35/1/54 34/1/54 71/1/54
f 71/1/55 70/1/55 35/1/55
f 101/1/56 27/1/56 26/1/56
f 43/1/57 61/1/57 26/1/57
f 69/1/58 68/1/58 37/1/58
f 70/1/59 69/1/59 36/1/59
f 38/1/60 67/1/60 66/1/60
f 42/1/61 41/1/61 64/1/61
f 26/1/62 61/1/62 101/1/62
f 43/1/63 42/1/63 63/1/63
f 69/1/64 37/1/64 36/1/64
f 38/1/65 68/1/65 67/1/65
f 68/1/66 38/1/66 37/1/66
f 41/1/67 40/1/67 65/1/67
f 40/1/68 66/1/68 65/1/68
f 61/1/69 43/1/69 62/1/69
f 61/1/70 60/1/70 101/1/70
f 62/1/71 43/1/71 63/1/71
f 40/1/72 39/1/72 66/1/72
f 63/1/73 42/1/73 64/1/73
f 39/1/72 38/1/72 66/1/72
f 64/1/74 41/1/74 65/1/74
f 70/1/75 36/1/75 35/1/75
f 163/1/1 156/1/1 121/1/1 116/1/1
f 138/1/2 137/1/2 109/1/2 108/1/2
f 137/1/3 139/1/3 110/1/3 109/1/3
f 139/1/4 140/1/4 111/1/4 110/1/4
f 140/1/5 141/1/5 112/1/5 111/1/5
f 142/1/6 102/1/6 112/1/6 141/1/6
f 153/1/7 161/1/7 156/1/7 135/1/7
f 162/1/8 122/1/8 115/1/8 157/1/8
f 143/1/9 103/1/9 102/1/9 142/1/9
f 163/1/4 116/1/4 114/1/4 164/1/4
f 157/1/10 115/1/10 117/1/10 158/1/10
f 34/1/11 6/1/11 148/1/11 104/1/11
f 158/1/12 117/1/12 118/1/12 159/1/12
f 148/1/13 150/1/13 105/1/13 104/1/13
f 159/1/14 118/1/14 119/1/14 160/1/14
f 150/1/15 152/1/15 106/1/15 105/1/15
f 160/1/16 119/1/16 120/1/16 161/1/16
f 152/1/17 154/1/17 107/1/17 106/1/17
f 161/1/7 120/1/7 121/1/7 156/1/7
f 154/1/18 138/1/18 108/1/18 107/1/18
f 145/1/8 113/1/8 122/1/8 162/1/8 155/1/8
f 15/1/8 145/1/8 155/1/8 53/1/8
f 9/1/18 10/1/18 138/1/18 154/1/18
f 22/1/7 153/1/7 135/1/7 23/1/7
f 8/1/17 9/1/17 154/1/17 152/1/17
f 21/1/16 151/1/16 153/1/16 22/1/16
f 7/1/15 8/1/15 152/1/15 150/1/15
f 20/1/14 149/1/14 151/1/14 21/1/14
f 6/1/13 7/1/13 150/1/13 148/1/13
f 19/1/12 147/1/12 149/1/12 20/1/12
f 17/1/10 146/1/10 147/1/10 19/1/10
f 18/1/4 136/1/4 144/1/4 16/1/4
f 2/1/9 143/1/9 142/1/9 1/1/9
f 53/1/8 155/1/8 146/1/8 17/1/8
f 16/1/19 144/1/19 143/1/19 2/1/19
f 1/1/6 142/1/6 141/1/6 14/1/6
f 13/1/5 14/1/5 141/1/5 140/1/5
f 12/1/4 13/1/4 140/1/4 139/1/4
f 11/1/3 12/1/3 139/1/3 137/1/3
f 10/1/2 11/1/2 137/1/2 138/1/2
f 18/1/1 23/1/1 135/1/1 136/1/1
f 113/1/19 145/1/19 25/1/19
f 145/1/19 15/1/19 25/1/19
f 145/1/76 25/1/76 124/1/76
f 123/1/77 145/1/77 124/1/77
f 129/1/78 30/1/78 31/1/78
f 124/1/79 24/1/79 125/1/79
f 3/1/80 127/1/80 126/1/80
f 126/1/81 24/1/81 3/1/81
f 28/1/82 127/1/82 3/1/82
f 29/1/83 127/1/83 28/1/83
f 29/1/84 128/1/84 127/1/84
f 30/1/85 128/1/85 29/1/85
f 133/1/86 58/1/86 59/1/86
f 134/1/87 59/1/87 4/1/87
f 32/1/88 130/1/88 129/1/88
f 129/1/89 31/1/89 32/1/89
f 55/1/90 130/1/90 32/1/90
f 128/1/91 30/1/91 129/1/91
f 130/1/92 56/1/92 131/1/92
f 132/1/93 57/1/93 58/1/93
f 131/1/94 57/1/94 132/1/94
f 124/1/95 25/1/95 24/1/95
f 132/1/96 58/1/96 133/1/96
f 131/1/97 56/1/97 57/1/97
f 133/1/98 59/1/98 134/1/98
f 125/1/99 24/1/99 126/1/99
f 5/1/100 134/1/100 4/1/100
f 33/1/101 134/1/101 5/1/101
f 33/1/102 34/1/102 134/1/102
f 130/1/103 55/1/103 56/1/103
f 121/1/104 120/1/104 118/1/104
f 118/1/104 120/1/104 119/1/104
f 121/1/104 117/1/104 116/1/104
f 113/1/104 114/1/104 122/1/104
f 116/1/104 115/1/104 122/1/104
f 122/1/104 114/1/104 116/1/104
f 118/1/104 117/1/104 121/1/104
f 117/1/104 115/1/104 116/1/104
f 151/1/16 160/1/16 161/1/16 153/1/16
f 149/1/14 159/1/14 160/1/14 151/1/14
f 147/1/12 158/1/12 159/1/12 149/1/12
f 146/1/10 157/1/10 158/1/10 147/1/10
f 136/1/4 163/1/4 164/1/4 144/1/4
f 155/1/8 162/1/8 157/1/8 146/1/8
f 136/1/1 135/1/1 156/1/1 163/1/1
f 113/1/49 145/1/49 123/1/49
f 113/1/105 123/1/105 114/1/105
f 164/1/51 144/1/51 16/1/51 15/1/51
f 114/1/52 123/1/52 164/1/52
f 164/1/106 15/1/106 145/1/106 123/1/106
f 144/1/19 164/1/19 103/1/19 143/1/19
f 104/1/107 134/1/107 34/1/107
f 134/1/108 104/1/108 133/1/108
f 164/1/109 102/1/109 103/1/109
f 112/1/110 102/1/110 124/1/110
f 132/1/111 106/1/111 131/1/111
f 133/1/112 105/1/112 132/1/112
f 107/1/113 129/1/113 130/1/113
f 111/1/114 127/1/114 110/1/114
f 102/1/115 164/1/115 124/1/115
f 112/1/116 126/1/116 111/1/116
f 132/1/117 105/1/117 106/1/117
f 107/1/118 130/1/118 131/1/118
f 131/1/119 106/1/119 107/1/119
f 110/1/120 128/1/120 109/1/120
f 109/1/121 128/1/121 129/1/121
f 124/1/122 125/1/122 112/1/122
f 124/1/123 164/1/123 123/1/123
f 125/1/124 126/1/124 112/1/124
f 109/1/125 129/1/125 108/1/125
f 126/1/126 127/1/126 111/1/126
f 108/1/125 129/1/125 107/1/125
f 127/1/127 128/1/127 110/1/127
f 133/1/128 104/1/128 105/1/128
