# Blender 3.6.8
# www.blender.org
o Blade
v 20.644270 -0.005764 -2.561566
v 22.897774 -0.005764 -2.553558
v 4.167550 -0.005764 0.072461
v -42.641277 -0.005764 -4.396953
v -43.484383 -0.005764 -4.895151
v -36.988304 -0.005764 -5.192217
v -32.067642 -0.005764 -4.456843
v -28.933510 -0.005764 -4.118019
v -19.572699 -0.005764 -3.058422
v -13.621701 -0.005764 -2.753479
v -7.375003 -0.005764 -2.448536
v 0.931158 -0.005764 -2.256922
v 9.293974 -0.005764 -2.256922
v 15.516848 -0.005764 -2.395061
v 22.881756 -0.005764 -0.795964
v 22.897774 -0.005764 -1.737298
v 27.625305 -0.005764 -0.795964
v 27.641327 -0.005764 -1.737298
v 32.639229 -0.005764 -1.163226
v 37.333794 -0.005764 -1.610327
v 40.000435 -0.005764 -2.009525
v 39.562042 -0.005764 -2.861959
v 32.671165 -0.005764 -2.057429
v 15.066595 -0.005764 0.095455
v 22.881756 -0.005764 0.051099
v 20.644270 0.281974 -2.561566
v 22.897774 0.320898 -2.553558
v -0.540316 -0.005764 0.064477
v -5.876256 -0.005764 -0.081896
v -9.575484 -0.005764 -0.241575
v -12.449706 -0.005764 -0.374641
v -16.907410 -0.005764 -0.720611
v -44.155033 -0.005764 -5.814901
v -44.457855 -0.005764 -6.447411
v -36.988304 0.208346 -5.192217
v -32.067642 0.281974 -4.456843
v -28.933510 0.281974 -4.118019
v -19.572699 0.281974 -3.058422
v -13.621701 0.281974 -2.753479
v -7.375003 0.281974 -2.448536
v 0.931158 0.281974 -2.256922
v 9.293974 0.281974 -2.256922
v 15.516848 0.281974 -2.395061
v 22.881756 0.465361 -0.795964
v 22.897774 0.465361 -1.737298
v 27.625305 0.465361 -0.795964
v 27.641327 0.465361 -1.737298
v 32.639229 0.465361 -1.163226
v 37.333794 0.465361 -1.610327
v 40.000435 0.465361 -2.009525
v 39.562042 0.465361 -2.861959
v 32.671165 0.465361 -2.057429
v 23.921827 -0.005764 -0.795964
v 23.921827 0.465361 -0.795964
v -20.619947 -0.005764 -1.026662
v -24.013124 -0.005764 -1.319407
v -28.404299 -0.005764 -1.771831
v -34.459324 -0.005764 -2.557451
v -37.870068 -0.005764 -3.266426
v 22.878668 0.296733 -1.070610
v 20.640627 0.257055 -1.112863
v 15.539855 0.276894 -1.142778
v 9.310505 0.257055 -1.106271
v 0.948498 0.266975 -1.124524
v -7.400420 0.266975 -1.307058
v -13.623018 0.276894 -1.562605
v -19.792080 0.257055 -2.037192
v -28.618258 0.257055 -2.876847
v -31.787693 0.276894 -3.187154
v -37.219353 0.197539 -4.155096
v -42.375927 0.197539 -5.006412
v 32.671165 0.222352 -2.057429
v 27.641327 0.222352 -1.737298
v -7.375003 0.133557 -2.448536
v -13.621701 0.133557 -2.753479
v 0.931158 0.133557 -2.256922
v 9.293974 0.133557 -2.256922
v 15.516848 0.133557 -2.395061
v 20.644270 0.133557 -2.561566
v 22.897774 0.152404 -2.553558
v 22.897774 0.222352 -1.737298
v 22.881756 0.222352 -0.795964
v 27.625305 0.222352 -0.795964
v 32.639229 0.222352 -1.163226
v -36.988304 0.097907 -5.192217
v 37.333794 0.222352 -1.610327
v -32.067642 0.133557 -4.456843
v 40.000435 0.222352 -2.009525
v -28.933510 0.133557 -4.118019
v 39.562042 0.222352 -2.861959
v -19.572699 0.133557 -3.058422
v 23.921827 0.222352 -0.795964
v 32.671165 0.305241 -2.057429
v 27.625305 0.305241 -0.795964
v 32.639229 0.305241 -1.163226
v 37.333794 0.305241 -1.610327
v 40.000435 0.305241 -2.009525
v 39.562042 0.305241 -2.861959
v 23.921827 0.305241 -0.795964
v 27.641327 0.305241 -1.737298
v 22.897774 0.305241 -1.737298
v 20.644270 -0.293501 -2.561566
v 22.897774 -0.332425 -2.553558
v -36.988304 -0.219874 -5.192217
v -32.067642 -0.293501 -4.456843
v -28.933510 -0.293501 -4.118019
v -19.572699 -0.293501 -3.058422
v -13.621701 -0.293501 -2.753479
v -7.375003 -0.293501 -2.448536
v 0.931158 -0.293501 -2.256922
v 9.293974 -0.293501 -2.256922
v 15.516848 -0.293501 -2.395061
v 22.881756 -0.476889 -0.795964
v 22.897774 -0.476889 -1.737298
v 27.625305 -0.476889 -0.795964
v 27.641327 -0.476889 -1.737298
v 32.639229 -0.476889 -1.163226
v 37.333794 -0.476889 -1.610327
v 40.000435 -0.476889 -2.009525
v 39.562042 -0.476889 -2.861959
v 32.671165 -0.476889 -2.057429
v 23.921827 -0.476889 -0.795964
v 22.878668 -0.308260 -1.070610
v 20.640627 -0.268582 -1.112863
v 15.539855 -0.288421 -1.142778
v 9.310505 -0.268582 -1.106271
v 0.948498 -0.278502 -1.124524
v -7.400420 -0.278502 -1.307058
v -13.623018 -0.288421 -1.562605
v -19.792080 -0.268582 -2.037192
v -28.618258 -0.268582 -2.876847
v -31.787693 -0.288421 -3.187154
v -37.219353 -0.209066 -4.155096
v -42.375927 -0.209066 -5.006412
v 32.671165 -0.233879 -2.057429
v 27.641327 -0.233879 -1.737298
v -7.375003 -0.145084 -2.448536
v -13.621701 -0.145084 -2.753479
v 0.931158 -0.145084 -2.256922
v 9.293974 -0.145084 -2.256922
v 15.516848 -0.145084 -2.395061
v 20.644270 -0.145084 -2.561566
v 22.897774 -0.163931 -2.553558
v 22.897774 -0.233879 -1.737298
v 22.881756 -0.233879 -0.795964
v 27.625305 -0.233879 -0.795964
v 32.639229 -0.233879 -1.163226
v -36.988304 -0.109434 -5.192217
v 37.333794 -0.233879 -1.610327
v -32.067642 -0.145084 -4.456843
v 40.000435 -0.233879 -2.009525
v -28.933510 -0.145084 -4.118019
v 39.562042 -0.233879 -2.861959
v -19.572699 -0.145084 -3.058422
v 23.921827 -0.233879 -0.795964
v 32.671165 -0.316768 -2.057429
v 27.625305 -0.316768 -0.795964
v 32.639229 -0.316768 -1.163226
v 37.333794 -0.316768 -1.610327
v 40.000435 -0.316768 -2.009525
v 39.562042 -0.316768 -2.861959
v 23.921827 -0.316768 -0.795964
v 27.641327 -0.316768 -1.737298
v 22.897774 -0.316768 -1.737298
v 24.567492 -0.496497 -3.326241
v 24.567492 0.475086 -3.326241
v 24.567492 -0.496497 -3.701115
v 24.567492 0.475086 -3.701115
v 28.860989 -0.496497 -2.955568
v 28.860989 0.475086 -2.955568
v 28.860989 -0.496497 -3.264646
v 28.860989 0.475086 -3.264646
v 25.763094 -0.496497 -3.511259
v 25.763094 0.475086 -3.511259
v 25.763094 -0.496497 -3.021887
v 25.763094 0.475086 -3.160677
vn -0.0635 -0.0000 -0.9980
vn 0.0488 -0.0000 -0.9988
vn 0.0231 -0.0000 -0.9997
vn -0.0000 -0.0000 -1.0000
vn -0.0222 -0.0000 -0.9998
vn -0.0325 -0.0000 -0.9995
vn -0.1160 -0.0000 -0.9933
vn -0.0000 -0.0000 1.0000
vn 0.0036 -0.0000 -1.0000
vn 0.0731 -0.0000 0.9973
vn 0.1657 -0.0000 -0.9862
vn 0.0948 -0.0000 0.9955
vn 0.1478 -0.0000 -0.9890
vn 0.1481 -0.0000 0.9890
vn 0.1075 -0.0000 -0.9942
vn 0.8893 -0.0000 -0.4573
vn 0.1125 -0.0000 -0.9937
vn 0.0512 -0.0000 -0.9987
vn 1.0000 -0.0000 -0.0000
vn -0.0218 0.9654 0.2600
vn -0.0220 0.9649 0.2616
vn -0.0112 0.9702 0.2419
vn 0.0025 0.9747 0.2235
vn 0.0007 0.9754 0.2204
vn -0.0005 0.9765 0.2157
vn -0.0004 0.9748 0.2231
vn -0.0059 0.9763 0.2165
vn -0.0049 0.9748 0.2231
vn -0.0099 0.9734 0.2290
vn -0.0404 0.9801 0.1946
vn -0.0684 0.9550 0.2888
vn -0.0217 0.9702 0.2412
vn -0.0194 0.9682 0.2495
vn -0.0195 0.9714 0.2367
vn -0.0080 0.9725 0.2326
vn -0.0217 0.9733 0.2285
vn -0.0361 0.9599 0.2779
vn -0.0169 0.9720 0.2344
vn 0.0012 0.9760 0.2180
vn -0.0525 0.9752 0.2149
vn -0.0243 0.9715 0.2358
vn -0.0330 0.9793 0.1999
vn -0.0018 0.9751 0.2219
vn -0.1498 0.9556 0.2536
vn -0.1672 0.9784 0.1219
vn -0.1442 0.9871 0.0690
vn -0.0204 0.9715 0.2360
vn -0.0000 1.0000 -0.0000
vn -0.9999 -0.0000 0.0112
vn -0.9988 0.0460 -0.0170
vn 0.9999 -0.0000 0.0170
vn -0.9996 -0.0000 -0.0286
vn 0.9989 0.0366 0.0291
vn -0.0065 0.9914 -0.1305
vn -0.0017 0.9999 0.0101
vn -0.0173 0.9997 0.0192
vn 0.0006 0.9999 0.0172
vn 0.0044 0.9998 0.0190
vn -0.0159 0.9998 0.0075
vn -0.0050 0.9997 0.0233
vn -0.0000 0.9999 0.0132
vn -0.0166 0.9997 0.0172
vn 0.0005 0.9998 0.0216
vn -0.0004 1.0000 0.0041
vn -0.0023 0.9997 0.0239
vn -0.0023 0.9998 0.0207
vn -0.0003 0.9999 0.0131
vn 0.0011 0.9999 0.0132
vn 0.0039 1.0000 0.0040
vn -0.0180 0.9998 0.0122
vn -0.0032 1.0000 0.0041
vn -0.0002 1.0000 0.0043
vn 0.0011 0.9998 0.0216
vn -0.0003 0.9999 0.0132
vn -0.0160 0.9998 0.0069
vn -0.0218 -0.9654 0.2600
vn -0.0220 -0.9649 0.2616
vn -0.0112 -0.9702 0.2419
vn 0.0025 -0.9747 0.2235
vn 0.0007 -0.9754 0.2204
vn -0.0005 -0.9765 0.2157
vn -0.0004 -0.9748 0.2231
vn -0.0059 -0.9763 0.2165
vn -0.0049 -0.9748 0.2231
vn -0.0099 -0.9734 0.2290
vn -0.0404 -0.9801 0.1946
vn -0.0684 -0.9550 0.2888
vn -0.0217 -0.9702 0.2412
vn -0.0194 -0.9682 0.2495
vn -0.0195 -0.9714 0.2367
vn -0.0080 -0.9725 0.2326
vn -0.0217 -0.9733 0.2285
vn -0.0361 -0.9599 0.2779
vn -0.0169 -0.9720 0.2344
vn 0.0012 -0.9760 0.2180
vn -0.0525 -0.9752 0.2149
vn -0.0243 -0.9715 0.2358
vn -0.0330 -0.9793 0.1999
vn -0.0018 -0.9751 0.2219
vn -0.1498 -0.9556 0.2536
vn -0.1672 -0.9784 0.1219
vn -0.1442 -0.9871 0.0690
vn -0.0204 -0.9715 0.2360
vn -0.0000 -1.0000 -0.0000
vn -0.9988 -0.0460 -0.0170
vn 0.9989 -0.0366 0.0291
vn -0.0065 -0.9914 -0.1305
vn -0.0017 -0.9999 0.0101
vn -0.0173 -0.9997 0.0192
vn 0.0006 -0.9999 0.0172
vn 0.0044 -0.9998 0.0190
vn -0.0159 -0.9998 0.0075
vn -0.0050 -0.9997 0.0233
vn -0.0000 -0.9999 0.0132
vn -0.0166 -0.9997 0.0172
vn 0.0005 -0.9998 0.0216
vn -0.0004 -1.0000 0.0041
vn -0.0023 -0.9997 0.0239
vn -0.0023 -0.9998 0.0207
vn -0.0003 -0.9999 0.0131
vn 0.0011 -0.9999 0.0132
vn 0.0039 -1.0000 0.0040
vn -0.0180 -0.9998 0.0122
vn -0.0032 -1.0000 0.0041
vn -0.0002 -1.0000 0.0043
vn 0.0011 -0.9998 0.0216
vn -0.0003 -0.9999 0.0132
vn -0.0160 -0.9998 0.0069
vn -1.0000 -0.0000 -0.0000
vn 0.0794 -0.0000 -0.9968
vn -0.2444 0.1371 0.9599
vn -0.0214 -0.0000 0.9998
vn 0.1568 -0.0000 -0.9876
vn 0.9999 -0.0000 -0.0112
vn -0.1372 -0.0000 0.9905
vn -0.0654 0.1411 0.9878
vt 0.000000 0.000000
vt 0.625000 0.000000
vt 0.375000 0.250000
vt 0.375000 0.000000
vt 0.625000 0.336183
vt 0.375000 0.500000
vt 0.375000 0.336183
vt 0.625000 0.500000
vt 0.375000 0.750000
vt 0.625000 0.913817
vt 0.375000 1.000000
vt 0.375000 0.913817
vt 0.211183 0.757925
vt 0.211183 0.493339
vt 0.788817 0.493339
vt 0.875000 0.750000
vt 0.788817 0.757925
vt 0.625000 0.750000
vt 0.125000 0.750000
vt 0.125000 0.500000
vt 0.625000 0.250000
vt 0.625000 1.000000
vt 0.875000 0.500000
s 0
f 47/1/1 93/1/1 100/1/1
f 39/1/2 74/1/2 75/1/2
f 40/1/3 76/1/3 74/1/3
f 41/1/4 77/1/4 76/1/4
f 42/1/5 78/1/5 77/1/5
f 78/1/6 26/1/6 79/1/6
f 72/1/7 98/1/7 90/1/7
f 94/1/8 54/1/8 99/1/8
f 80/1/9 26/1/9 27/1/9
f 101/1/4 47/1/4 100/1/4
f 95/1/10 46/1/10 94/1/10
f 34/1/11 85/1/11 6/1/11
f 96/1/12 48/1/12 95/1/12
f 35/1/13 87/1/13 85/1/13
f 97/1/14 49/1/14 96/1/14
f 36/1/15 89/1/15 87/1/15
f 98/1/16 50/1/16 97/1/16
f 37/1/17 91/1/17 89/1/17
f 93/1/7 51/1/7 98/1/7
f 38/1/18 75/1/18 91/1/18
f 99/1/8 54/1/8 44/1/8
f 53/1/8 82/1/8 15/1/8
f 91/1/18 10/1/18 9/1/18
f 23/1/7 90/1/7 22/1/7
f 89/1/17 9/1/17 8/1/17
f 22/1/16 88/1/16 21/1/16
f 87/1/15 8/1/15 7/1/15
f 21/1/14 86/1/14 20/1/14
f 85/1/13 7/1/13 6/1/13
f 20/1/12 84/1/12 19/1/12
f 19/1/10 83/1/10 17/1/10
f 16/1/4 73/1/4 18/1/4
f 2/1/9 79/1/9 80/1/9
f 17/1/8 92/1/8 53/1/8
f 16/1/19 80/1/19 81/1/19
f 14/1/6 79/1/6 1/1/6
f 77/1/5 14/1/5 13/1/5
f 76/1/4 13/1/4 12/1/4
f 74/1/3 12/1/3 11/1/3
f 75/1/2 11/1/2 10/1/2
f 73/1/1 23/1/1 18/1/1
f 44/1/19 25/1/19 82/1/19
f 82/1/19 25/1/19 15/1/19
f 82/1/20 61/1/20 25/1/20
f 60/1/21 61/1/21 82/1/21
f 66/1/22 31/1/22 30/1/22
f 61/1/23 62/1/23 24/1/23
f 3/1/24 63/1/24 64/1/24
f 63/1/25 3/1/25 24/1/25
f 28/1/26 3/1/26 64/1/26
f 29/1/27 28/1/27 64/1/27
f 29/1/28 64/1/28 65/1/28
f 30/1/29 29/1/29 65/1/29
f 70/1/30 59/1/30 58/1/30
f 71/1/31 4/1/31 59/1/31
f 32/1/32 66/1/32 67/1/32
f 66/1/33 32/1/33 31/1/33
f 55/1/34 32/1/34 67/1/34
f 65/1/35 66/1/35 30/1/35
f 67/1/36 68/1/36 56/1/36
f 69/1/37 58/1/37 57/1/37
f 68/1/38 69/1/38 57/1/38
f 61/1/39 24/1/39 25/1/39
f 69/1/40 70/1/40 58/1/40
f 68/1/41 57/1/41 56/1/41
f 70/1/42 71/1/42 59/1/42
f 62/1/43 63/1/43 24/1/43
f 5/1/44 4/1/44 71/1/44
f 33/1/45 5/1/45 71/1/45
f 33/1/46 71/1/46 34/1/46
f 67/1/47 56/1/47 55/1/47
f 52/1/48 49/1/48 51/1/48
f 49/1/48 50/1/48 51/1/48
f 52/1/48 47/1/48 48/1/48
f 44/1/48 54/1/48 45/1/48
f 47/1/48 54/1/48 46/1/48
f 54/1/48 47/1/48 45/1/48
f 49/1/48 52/1/48 48/1/48
f 48/1/48 47/1/48 46/1/48
f 90/1/16 97/1/16 88/1/16
f 88/1/14 96/1/14 86/1/14
f 86/1/12 95/1/12 84/1/12
f 84/1/10 94/1/10 83/1/10
f 81/1/4 100/1/4 73/1/4
f 83/1/8 99/1/8 92/1/8
f 100/1/1 72/1/1 73/1/1
f 44/1/49 60/1/49 82/1/49
f 44/1/50 45/1/50 60/1/50
f 15/1/51 81/1/51 101/1/51
f 45/1/52 101/1/52 60/1/52
f 60/1/53 15/1/53 101/1/53
f 81/1/19 27/1/19 101/1/19
f 35/1/54 34/1/54 71/1/54
f 71/1/55 70/1/55 35/1/55
f 101/1/56 27/1/56 26/1/56
f 43/1/57 61/1/57 26/1/57
f 69/1/58 68/1/58 37/1/58
f 70/1/59 69/1/59 36/1/59
f 38/1/60 67/1/60 66/1/60
f 42/1/61 41/1/61 64/1/61
f 26/1/62 61/1/62 101/1/62
f 43/1/63 42/1/63 63/1/63
f 69/1/64 37/1/64 36/1/64
f 38/1/65 68/1/65 67/1/65
f 68/1/66 38/1/66 37/1/66
f 41/1/67 40/1/67 65/1/67
f 40/1/68 66/1/68 65/1/68
f 61/1/69 43/1/69 62/1/69
f 61/1/70 60/1/70 101/1/70
f 62/1/71 43/1/71 63/1/71
f 40/1/72 39/1/72 66/1/72
f 63/1/73 42/1/73 64/1/73
f 39/1/72 38/1/72 66/1/72
f 64/1/74 41/1/74 65/1/74
f 70/1/75 36/1/75 35/1/75
f 156/1/1 116/1/1 163/1/1
f 137/1/2 108/1/2 138/1/2
f 139/1/3 109/1/3 137/1/3
f 140/1/4 110/1/4 139/1/4
f 141/1/5 111/1/5 140/1/5
f 102/1/6 141/1/6 142/1/6
f 161/1/7 135/1/7 153/1/7
f 122/1/8 157/1/8 162/1/8
f 143/1/9 102/1/9 142/1/9
f 116/1/4 164/1/4 163/1/4
f 115/1/10 158/1/10 157/1/10
f 34/1/11 148/1/11 104/1/11
f 117/1/12 159/1/12 158/1/12
f 150/1/13 104/1/13 148/1/13
f 118/1/14 160/1/14 159/1/14
f 152/1/15 105/1/15 150/1/15
f 119/1/16 161/1/16 160/1/16
f 154/1/17 106/1/17 152/1/17
f 120/1/7 156/1/7 161/1/7
f 138/1/18 107/1/18 154/1/18
f 113/1/8 122/1/8 162/1/8
f 145/1/8 53/1/8 15/1/8
f 10/1/18 154/1/18 9/1/18
f 153/1/7 23/1/7 22/1/7
f 9/1/17 152/1/17 8/1/17
f 151/1/16 22/1/16 21/1/16
f 8/1/15 150/1/15 7/1/15
f 149/1/14 21/1/14 20/1/14
f 7/1/13 148/1/13 6/1/13
f 147/1/12 20/1/12 19/1/12
f 146/1/10 19/1/10 17/1/10
f 136/1/4 16/1/4 18/1/4
f 2/1/9 142/1/9 1/1/9
f 155/1/8 17/1/8 53/1/8
f 16/1/19 143/1/19 2/1/19
f 142/1/6 14/1/6 1/1/6
f 14/1/5 140/1/5 13/1/5
f 13/1/4 139/1/4 12/1/4
f 12/1/3 137/1/3 11/1/3
f 11/1/2 138/1/2 10/1/2
f 23/1/1 136/1/1 18/1/1
f 113/1/19 145/1/19 25/1/19
f 145/1/19 15/1/19 25/1/19
f 145/1/76 25/1/76 124/1/76
f 123/1/77 145/1/77 124/1/77
f 129/1/78 30/1/78 31/1/78
f 124/1/79 24/1/79 125/1/79
f 3/1/80 127/1/80 126/1/80
f 126/1/81 24/1/81 3/1/81
f 28/1/82 127/1/82 3/1/82
f 29/1/83 127/1/83 28/1/83
f 29/1/84 128/1/84 127/1/84
f 30/1/85 128/1/85 29/1/85
f 133/1/86 58/1/86 59/1/86
f 134/1/87 59/1/87 4/1/87
f 32/1/88 130/1/88 129/1/88
f 129/1/89 31/1/89 32/1/89
f 55/1/90 130/1/90 32/1/90
f 128/1/91 30/1/91 129/1/91
f 130/1/92 56/1/92 131/1/92
f 132/1/93 57/1/93 58/1/93
f 131/1/94 57/1/94 132/1/94
f 124/1/95 25/1/95 24/1/95
f 132/1/96 58/1/96 133/1/96
f 131/1/97 56/1/97 57/1/97
f 133/1/98 59/1/98 134/1/98
f 125/1/99 24/1/99 126/1/99
f 5/1/100 134/1/100 4/1/100
f 33/1/101 134/1/101 5/1/101
f 33/1/102 34/1/102 134/1/102
f 130/1/103 55/1/103 56/1/103
f 121/1/104 120/1/104 118/1/104
f 118/1/104 120/1/104 119/1/104
f 121/1/104 117/1/104 116/1/104
f 113/1/104 114/1/104 122/1/104
f 116/1/104 115/1/104 122/1/104
f 122/1/104 114/1/104 116/1/104
f 118/1/104 117/1/104 121/1/104
f 117/1/104 115/1/104 116/1/104
f 160/1/16 153/1/16 151/1/16
f 159/1/14 151/1/14 149/1/14
f 158/1/12 149/1/12 147/1/12
f 157/1/10 147/1/10 146/1/10
f 163/1/4 144/1/4 136/1/4
f 162/1/8 146/1/8 155/1/8
f 135/1/1 163/1/1 136/1/1
f 113/1/49 145/1/49 123/1/49
f 113/1/105 123/1/105 114/1/105
f 144/1/51 15/1/51 164/1/51
f 114/1/52 123/1/52 164/1/52
f 15/1/106 123/1/106 164/1/106
f 144/1/19 103/1/19 143/1/19
f 104/1/107 134/1/107 34/1/107
f 134/1/108 104/1/108 133/1/108
f 164/1/109 102/1/109 103/1/109
f 112/1/110 102/1/110 124/1/110
f 132/1/111 106/1/111 131/1/111
f 133/1/112 105/1/112 132/1/112
f 107/1/113 129/1/113 130/1/113
f 111/1/114 127/1/114 110/1/114
f 102/1/115 164/1/115 124/1/115
f 112/1/116 126/1/116 111/1/116
f 132/1/117 105/1/117 106/1/117
f 107/1/118 130/1/118 131/1/118
f 131/1/119 106/1/119 107/1/119
f 110/1/120 128/1/120 109/1/120
f 109/1/121 128/1/121 129/1/121
f 124/1/122 125/1/122 112/1/122
f 124/1/123 164/1/123 123/1/123
f 125/1/124 126/1/124 112/1/124
f 109/1/125 129/1/125 108/1/125
f 126/1/126 127/1/126 111/1/126
f 108/1/125 129/1/125 107/1/125
f 127/1/127 128/1/127 110/1/127
f 133/1/128 104/1/128 105/1/128
f 166/2/129 167/3/129 165/4/129
f 174/5/130 171/6/130 173/7/130
f 172/8/19 169/9/19 171/6/19
f 176/10/131 165/11/131 175/12/131
f 171/6/104 175/13/104 173/14/104
f 174/15/48 166/16/48 176/17/48
f 172/8/48 176/17/48 170/18/48
f 173/14/104 165/19/104 167/20/104
f 170/18/132 175/12/132 169/9/132
f 168/21/133 173/7/133 167/3/133
f 47/1/1 52/1/1 93/1/1
f 39/1/2 40/1/2 74/1/2
f 40/1/3 41/1/3 76/1/3
f 41/1/4 42/1/4 77/1/4
f 42/1/5 43/1/5 78/1/5
f 78/1/6 43/1/6 26/1/6
f 72/1/7 93/1/7 98/1/7
f 94/1/8 46/1/8 54/1/8
f 80/1/9 79/1/9 26/1/9
f 101/1/4 45/1/4 47/1/4
f 95/1/10 48/1/10 46/1/10
f 34/1/11 35/1/11 85/1/11
f 96/1/12 49/1/12 48/1/12
f 35/1/13 36/1/13 87/1/13
f 97/1/14 50/1/14 49/1/14
f 36/1/15 37/1/15 89/1/15
f 98/1/16 51/1/16 50/1/16
f 37/1/17 38/1/17 91/1/17
f 93/1/7 52/1/7 51/1/7
f 38/1/18 39/1/18 75/1/18
f 44/1/8 82/1/8 99/1/8
f 82/1/8 92/1/8 99/1/8
f 53/1/8 92/1/8 82/1/8
f 91/1/18 75/1/18 10/1/18
f 23/1/7 72/1/7 90/1/7
f 89/1/17 91/1/17 9/1/17
f 22/1/16 90/1/16 88/1/16
f 87/1/15 89/1/15 8/1/15
f 21/1/14 88/1/14 86/1/14
f 85/1/13 87/1/13 7/1/13
f 20/1/12 86/1/12 84/1/12
f 19/1/10 84/1/10 83/1/10
f 16/1/4 81/1/4 73/1/4
f 2/1/9 1/1/9 79/1/9
f 17/1/8 83/1/8 92/1/8
f 16/1/19 2/1/19 80/1/19
f 14/1/6 78/1/6 79/1/6
f 77/1/5 78/1/5 14/1/5
f 76/1/4 77/1/4 13/1/4
f 74/1/3 76/1/3 12/1/3
f 75/1/2 74/1/2 11/1/2
f 73/1/1 72/1/1 23/1/1
f 90/1/16 98/1/16 97/1/16
f 88/1/14 97/1/14 96/1/14
f 86/1/12 96/1/12 95/1/12
f 84/1/10 95/1/10 94/1/10
f 81/1/4 101/1/4 100/1/4
f 83/1/8 94/1/8 99/1/8
f 100/1/1 93/1/1 72/1/1
f 15/1/51 16/1/51 81/1/51
f 60/1/134 82/1/134 15/1/134
f 81/1/19 80/1/19 27/1/19
f 156/1/1 121/1/1 116/1/1
f 137/1/2 109/1/2 108/1/2
f 139/1/3 110/1/3 109/1/3
f 140/1/4 111/1/4 110/1/4
f 141/1/5 112/1/5 111/1/5
f 102/1/6 112/1/6 141/1/6
f 161/1/7 156/1/7 135/1/7
f 122/1/8 115/1/8 157/1/8
f 143/1/9 103/1/9 102/1/9
f 116/1/4 114/1/4 164/1/4
f 115/1/10 117/1/10 158/1/10
f 34/1/11 6/1/11 148/1/11
f 117/1/12 118/1/12 159/1/12
f 150/1/13 105/1/13 104/1/13
f 118/1/14 119/1/14 160/1/14
f 152/1/15 106/1/15 105/1/15
f 119/1/16 120/1/16 161/1/16
f 154/1/17 107/1/17 106/1/17
f 120/1/7 121/1/7 156/1/7
f 138/1/18 108/1/18 107/1/18
f 155/1/8 145/1/8 162/1/8
f 145/1/8 113/1/8 162/1/8
f 145/1/8 155/1/8 53/1/8
f 10/1/18 138/1/18 154/1/18
f 153/1/7 135/1/7 23/1/7
f 9/1/17 154/1/17 152/1/17
f 151/1/16 153/1/16 22/1/16
f 8/1/15 152/1/15 150/1/15
f 149/1/14 151/1/14 21/1/14
f 7/1/13 150/1/13 148/1/13
f 147/1/12 149/1/12 20/1/12
f 146/1/10 147/1/10 19/1/10
f 136/1/4 144/1/4 16/1/4
f 2/1/9 143/1/9 142/1/9
f 155/1/8 146/1/8 17/1/8
f 16/1/19 144/1/19 143/1/19
f 142/1/6 141/1/6 14/1/6
f 14/1/5 141/1/5 140/1/5
f 13/1/4 140/1/4 139/1/4
f 12/1/3 139/1/3 137/1/3
f 11/1/2 137/1/2 138/1/2
f 23/1/1 135/1/1 136/1/1
f 160/1/16 161/1/16 153/1/16
f 159/1/14 160/1/14 151/1/14
f 158/1/12 159/1/12 149/1/12
f 157/1/10 158/1/10 147/1/10
f 163/1/4 164/1/4 144/1/4
f 162/1/8 157/1/8 146/1/8
f 135/1/1 156/1/1 163/1/1
f 144/1/51 16/1/51 15/1/51
f 15/1/134 145/1/134 123/1/134
f 144/1/19 164/1/19 103/1/19
f 166/2/129 168/21/129 167/3/129
f 174/5/130 172/8/130 171/6/130
f 172/8/19 170/18/19 169/9/19
f 176/10/135 166/22/135 165/11/135
f 171/6/104 169/9/104 175/13/104
f 174/15/48 168/23/48 166/16/48
f 172/8/48 174/15/48 176/17/48
f 173/14/104 175/13/104 165/19/104
f 170/18/136 176/10/136 175/12/136
f 168/21/133 174/5/133 173/7/133
