# Blender 3.6.8
# www.blender.org
o Button
v 0.491350 -0.009815 -0.066525
v 0.491350 0.009617 -0.066525
v 0.491350 -0.009815 -0.074022
v 0.491350 0.009617 -0.074022
v 0.577220 -0.009815 -0.059111
v 0.577220 0.009617 -0.059111
v 0.577220 -0.009815 -0.065293
v 0.577220 0.009617 -0.065293
v 0.515262 -0.009815 -0.070225
v 0.515262 0.009617 -0.070225
v 0.515262 -0.009815 -0.060438
v 0.515262 0.009617 -0.063214
vn -1.0000 -0.0000 -0.0000
vn 0.0794 -0.0000 -0.9968
vn 1.0000 -0.0000 -0.0000
vn -0.1924 0.0699 0.9788
vn -0.0000 -1.0000 -0.0000
vn -0.0000 1.0000 -0.0000
vn -0.0437 0.0712 0.9965
vn 0.1568 -0.0000 -0.9876
vt 0.375000 0.000000
vt 0.625000 0.000000
vt 0.625000 0.250000
vt 0.375000 0.250000
vt 0.375000 0.336183
vt 0.625000 0.336183
vt 0.625000 0.500000
vt 0.375000 0.500000
vt 0.625000 0.750000
vt 0.375000 0.750000
vt 0.375000 0.913817
vt 0.625000 0.913817
vt 0.625000 1.000000
vt 0.375000 1.000000
vt 0.211183 0.493339
vt 0.211183 0.757925
vt 0.788817 0.493339
vt 0.875000 0.500000
vt 0.875000 0.750000
vt 0.788817 0.757925
vt 0.125000 0.500000
vt 0.125000 0.750000
s 0
f 1/1/1 2/2/1 4/3/1 3/4/1
f 9/5/2 10/6/2 8/7/2 7/8/2
f 7/8/3 8/7/3 6/9/3 5/10/3
f 11/11/4 12/12/4 2/13/4 1/14/4
f 9/15/5 7/8/5 5/10/5 11/16/5
f 10/17/6 4/18/6 2/19/6 12/20/6
f 8/7/6 10/17/6 12/20/6 6/9/6
f 3/21/5 9/15/5 11/16/5 1/22/5
f 5/10/7 6/9/7 12/12/7 11/11/7
f 3/4/8 4/3/8 10/6/8 9/5/8
